<svg xmlns="http://www.w3.org/2000/svg" viewBox="0 0 20 20" fill="none">
  <!-- Fuel droplet -->
  <path d="M10 3L13.5 9C14.8 11 15 12 15 13C15 15.5 12.8 17.5 10 17.5C7.2 17.5 5 15.5 5 13C5 12 5.2 11 6.5 9L10 3Z" stroke="currentColor" stroke-width="1.5" stroke-linejoin="round"/>
  <path d="M10 7L12 11C12.7 12.1 13 12.7 13 13C13 14.4 11.7 15.5 10 15.5C8.3 15.5 7 14.4 7 13C7 12.7 7.3 12.1 8 11L10 7Z" fill="currentColor" fill-opacity="0.2"/>
  <!-- Highlight -->
  <path d="M8.5 11.5C8 12.5 7.8 13 8 13.5" stroke="currentColor" stroke-width="0.75" stroke-opacity="0.5" stroke-linecap="round"/>
</svg>
