<svg xmlns="http://www.w3.org/2000/svg" viewBox="0 0 20 20" fill="none">
  <!-- Gas flame -->
  <path d="M10 17C13 17 15.5 14.5 15.5 11.5C15.5 9 13.5 7 12 5.5C12 7.5 10.5 8.5 10.5 8.5C9 7 9 5 9 5C7 6.5 5.5 8.5 5.5 11.5C5.5 14.5 7 17 10 17Z" stroke="currentColor" stroke-width="1.5" stroke-linejoin="round"/>
  <path d="M10 17C11.5 17 13 15.5 13 13.5C13 12 12 10.5 11 9.5C11 10.5 10 11.5 10 11.5C9 10.5 9 9.5 9 9.5C8 10.5 7 12 7 13.5C7 15.5 8.5 17 10 17Z" fill="currentColor" fill-opacity="0.25"/>
</svg>
